# xmcd
#
# Track frame offsets: 
#        150
#        11695
#        25235
#        37141
#        47997
#        62018
#        72846
#        84171
#        94102
#        103719
#        117767
#        130303
#        141920
#        150820
#        160327
#        172718
#        185256
#        197091
#        208407
#        220584
#        232807
#        243804
#        254934
#
# Disc length: 3849 seconds
#
# Revision: 0
# Processed by: cddbd v1.5.2PL0 Copyright (c) Steve Scherf et al.
# Submitted via: ExactAudioCopyFreeDBPlugin 1.0
#
DISCID=390f0717
DTITLE=Various Artist - DJ Snowboy Presents the Good Foot
DYEAR=2014
DGENRE=Soul
TTITLE0=Little Eva Harris - Get Ready - Uptight
TTITLE1=The Ikettes - Don't Feel Sorry for Me
TTITLE2=Etta James - Can't Shake It
TTITLE3=The Dynamics - Misery
TTITLE4=Sue Ann Jones - I'll Give You My Love
TTITLE5=The Brownettes - Baby, Don't You Know
TTITLE6=Jimmy Norman - I Don't Love You No More (I Don't Care About Yo
TTITLE6=u)
TTITLE7=Dorothy Berry - I Say You're Driving Me Crazy
TTITLE8=The Soul Senders - Soul Brothers Testify, Part 2
TTITLE9=Luther Ingram - Oh Baby Don't You Weep
TTITLE10=Little Willie John - Don't Play with Love
TTITLE11=The Barrino Brothers - Just a Mistake
TTITLE12=James Carr - Coming Back to Me Baby
TTITLE13=The Shirelles - Boys
TTITLE14=James Brown - Bring it Up
TTITLE15=Aretha Franklin - Rough Lover
TTITLE16=Z.Z. Hill - You Don't Love Me
TTITLE17=Little Johnny Taylor - Looking at the Future
TTITLE18=Hank Marr - The Watusi Roll
TTITLE19=Mongo Santamaria - Sweet Tater Pie
TTITLE20=The Contours - Do the See Saw
TTITLE21=Mark Murphy - Why Don't You Do Right?
TTITLE22=Willis Jackson - Nuther'n Like Thuther'n
EXTD=
EXTT0=
EXTT1=
EXTT2=
EXTT3=
EXTT4=
EXTT5=
EXTT6=
EXTT7=
EXTT8=
EXTT9=
EXTT10=
EXTT11=
EXTT12=
EXTT13=
EXTT14=
EXTT15=
EXTT16=
EXTT17=
EXTT18=
EXTT19=
EXTT20=
EXTT21=
EXTT22=
PLAYORDER=
